<svg width="60" height="60" viewBox="0 0 60 60" fill="none" xmlns="http://www.w3.org/2000/svg">
<g clip-path="url(#clip0_1239_16583)">
<path d="M30 17.5001C35.3043 17.5001 40.3914 19.6072 44.1421 23.3579C47.8929 27.1087 50 32.1957 50 37.5001C50 42.8044 47.8929 47.8915 44.1421 51.6422C40.3914 55.3929 35.3043 57.5001 30 57.5001C24.6957 57.5001 19.6086 55.3929 15.8579 51.6422C12.1071 47.8915 10 42.8044 10 37.5001C10 32.1957 12.1071 27.1087 15.8579 23.3579C19.6086 19.6072 24.6957 17.5001 30 17.5001ZM30 26.2501L26.6925 32.9501L19.3 34.0251L24.65 39.2376L23.3875 46.6026L30 43.1251L36.6125 46.6001L35.35 39.2376L40.7 34.0226L33.3075 32.9476L30 26.2501ZM32.5 4.99756L45 5.00006V12.5001L41.5925 15.3451C38.7649 13.8615 35.6777 12.9371 32.5 12.6226V5.00006V4.99756ZM27.5 4.99756V12.6226C24.3234 12.9367 21.2371 13.8602 18.41 15.3426L15 12.5001V5.00006L27.5 4.99756Z" fill="#0E9E2F"/>
<path d="M30 17.5001C35.3043 17.5001 40.3914 19.6072 44.1421 23.3579C47.8929 27.1087 50 32.1957 50 37.5001C50 42.8044 47.8929 47.8915 44.1421 51.6422C40.3914 55.3929 35.3043 57.5001 30 57.5001C24.6957 57.5001 19.6086 55.3929 15.8579 51.6422C12.1071 47.8915 10 42.8044 10 37.5001C10 32.1957 12.1071 27.1087 15.8579 23.3579C19.6086 19.6072 24.6957 17.5001 30 17.5001ZM30 26.2501L26.6925 32.9501L19.3 34.0251L24.65 39.2376L23.3875 46.6026L30 43.1251L36.6125 46.6001L35.35 39.2376L40.7 34.0226L33.3075 32.9476L30 26.2501ZM32.5 4.99756L45 5.00006V12.5001L41.5925 15.3451C38.7649 13.8615 35.6777 12.9371 32.5 12.6226V5.00006V4.99756ZM27.5 4.99756V12.6226C24.3234 12.9367 21.2371 13.8602 18.41 15.3426L15 12.5001V5.00006L27.5 4.99756Z" fill="white" fill-opacity="0.1"/>
</g>
<defs>
<clipPath id="clip0_1239_16583">
<rect width="60" height="60" fill="white"/>
</clipPath>
</defs>
</svg>
