<svg width="60" height="60" viewBox="0 0 60 60" fill="none" xmlns="http://www.w3.org/2000/svg">
<g clip-path="url(#clip0_1239_16607)">
<path d="M35.3022 26.1999C34.8333 25.7312 34.1976 25.4679 33.5347 25.4679C32.8717 25.4679 32.236 25.7312 31.7672 26.1999L29.9997 27.9649C29.5384 28.4425 28.9867 28.8234 28.3767 29.0854C27.7667 29.3475 27.1106 29.4854 26.4467 29.4912C25.7828 29.4969 25.1244 29.3704 24.5099 29.119C23.8954 28.8676 23.3371 28.4963 22.8677 28.0269C22.3982 27.5574 22.027 26.9992 21.7755 26.3847C21.5241 25.7702 21.3976 25.1118 21.4034 24.4479C21.4092 23.784 21.5471 23.1279 21.8091 22.5179C22.0712 21.9079 22.4521 21.3561 22.9297 20.8949L37.0047 6.81491C40.337 6.05698 43.8234 6.36891 46.9683 7.70635C50.1131 9.04379 52.7562 11.3387 54.5219 14.2646C56.2875 17.1906 57.0857 20.5988 56.803 24.0045C56.5203 27.4102 55.171 30.6401 52.9472 33.2349L47.6772 38.5724L35.3022 26.1974V26.1999ZM7.90215 11.1699C10.4891 8.58335 13.8727 6.94486 17.5061 6.51933C21.1394 6.09379 24.8101 6.9061 27.9247 8.82491L19.3922 17.3599C17.5442 19.2042 16.4907 21.6982 16.457 24.3088C16.4233 26.9195 17.4119 29.4398 19.2116 31.3312C21.0113 33.2227 23.4794 34.3353 26.0885 34.4313C28.6976 34.5273 31.2408 33.599 33.1747 31.8449L33.5347 31.5024L44.1422 42.1074L33.5347 52.7149C32.597 53.6523 31.3255 54.1788 29.9997 54.1788C28.6738 54.1788 27.4023 53.6523 26.4647 52.7149L7.89965 34.1499C4.85249 31.1025 3.14062 26.9694 3.14062 22.6599C3.14062 18.3504 4.85249 14.2173 7.89965 11.1699H7.90215Z" fill="#0E9E2F"/>
<path d="M35.3022 26.1999C34.8333 25.7312 34.1976 25.4679 33.5347 25.4679C32.8717 25.4679 32.236 25.7312 31.7672 26.1999L29.9997 27.9649C29.5384 28.4425 28.9867 28.8234 28.3767 29.0854C27.7667 29.3475 27.1106 29.4854 26.4467 29.4912C25.7828 29.4969 25.1244 29.3704 24.5099 29.119C23.8954 28.8676 23.3371 28.4963 22.8677 28.0269C22.3982 27.5574 22.027 26.9992 21.7755 26.3847C21.5241 25.7702 21.3976 25.1118 21.4034 24.4479C21.4092 23.784 21.5471 23.1279 21.8091 22.5179C22.0712 21.9079 22.4521 21.3561 22.9297 20.8949L37.0047 6.81491C40.337 6.05698 43.8234 6.36891 46.9683 7.70635C50.1131 9.04379 52.7562 11.3387 54.5219 14.2646C56.2875 17.1906 57.0857 20.5988 56.803 24.0045C56.5203 27.4102 55.171 30.6401 52.9472 33.2349L47.6772 38.5724L35.3022 26.1974V26.1999ZM7.90215 11.1699C10.4891 8.58335 13.8727 6.94486 17.5061 6.51933C21.1394 6.09379 24.8101 6.9061 27.9247 8.82491L19.3922 17.3599C17.5442 19.2042 16.4907 21.6982 16.457 24.3088C16.4233 26.9195 17.4119 29.4398 19.2116 31.3312C21.0113 33.2227 23.4794 34.3353 26.0885 34.4313C28.6976 34.5273 31.2408 33.599 33.1747 31.8449L33.5347 31.5024L44.1422 42.1074L33.5347 52.7149C32.597 53.6523 31.3255 54.1788 29.9997 54.1788C28.6738 54.1788 27.4023 53.6523 26.4647 52.7149L7.89965 34.1499C4.85249 31.1025 3.14062 26.9694 3.14062 22.6599C3.14062 18.3504 4.85249 14.2173 7.89965 11.1699H7.90215Z" fill="white" fill-opacity="0.1"/>
</g>
<defs>
<clipPath id="clip0_1239_16607">
<rect width="60" height="60" fill="white"/>
</clipPath>
</defs>
</svg>
