<?xml version="1.0" encoding="UTF-8"?>
<svg xmlns="http://www.w3.org/2000/svg" width="100" height="100" viewBox="0 0 100 100" fill="none"><g clip-path="url(#clip0_100_10)"><path d="M49.785 29.5065C53.02 29.5065 56.1202 27.8761 58.5143 24.9172C60.7009 22.2149 61.9547 18.8066 61.9547 15.5631C61.9547 9.02893 56.7235 4.10156 49.785 4.10156C42.8465 4.10156 37.6153 9.02251 37.6153 15.5631C37.6153 18.8066 38.8691 22.2149 41.0557 24.9172C43.4498 27.8783 46.55 29.5065 49.785 29.5065ZM49.785 7.63181C54.7915 7.63181 58.4245 10.9674 58.4245 15.5631C58.4245 21.3398 53.6982 25.9762 49.785 25.9762C44.9989 25.9762 41.1455 20.2786 41.1455 15.5631C41.1455 10.9759 44.7785 7.63181 49.785 7.63181V7.63181Z" fill="#FFFFFF"/><path d="M35.3837 46.4473L34.1449 64.1178C34.1286 64.349 34.158 64.5812 34.2315 64.8011C34.3049 65.021 34.4209 65.2242 34.5729 65.3993C34.7249 65.5743 34.9099 65.7177 35.1173 65.8212C35.3247 65.9248 35.5504 65.9864 35.7817 66.0027H35.9058C36.3523 66.0022 36.7821 65.8327 37.1088 65.5283C37.4354 65.2239 37.6347 64.8071 37.6666 64.3617L38.9054 46.7062C38.9217 46.475 38.8923 46.2428 38.8189 46.0229C38.7454 45.803 38.6294 45.5998 38.4774 45.4247C38.3254 45.2497 38.1405 45.1063 37.9331 45.0028C37.7257 44.8992 37.4999 44.8376 37.2687 44.8213C37.0374 44.805 36.8052 44.8344 36.5854 44.9078C36.3655 44.9812 36.1623 45.0973 35.9872 45.2493C35.8122 45.4012 35.6688 45.5862 35.5653 45.7936C35.4617 46.001 35.4 46.2268 35.3837 46.458V46.4473Z" fill="#FFFFFF"/><path d="M73.7243 66.0006C74.2032 65.9582 74.6458 65.7276 74.955 65.3595C75.2642 64.9913 75.4148 64.5156 75.3739 64.0365C75.3739 64.0365 73.5082 50.658 73.2344 46.1692C72.7273 38.1096 67.8042 31.6439 60.1125 30.4671C57.4082 30.0521 52.4958 29.7397 49.9283 29.7375C46.4236 29.7983 42.9243 30.0404 39.4446 30.4629C35.837 30.9567 32.533 32.748 30.1504 35.5015C27.6471 38.392 26.5282 42.087 26.2992 46.1778C26.0425 50.6708 24.3416 64.0558 24.3416 64.0558C24.3129 64.2878 24.3306 64.5233 24.3937 64.7484C24.4568 64.9736 24.564 65.1839 24.7091 65.3673C24.8541 65.5506 25.0342 65.7034 25.2388 65.8166C25.4433 65.9298 25.6684 66.0012 25.9008 66.0267C26.1332 66.0522 26.3684 66.0313 26.5926 65.9652C26.8169 65.899 27.0258 65.789 27.2072 65.6415C27.3886 65.4939 27.5388 65.3118 27.6493 65.1057C27.7597 64.8996 27.828 64.6737 27.8504 64.4409C27.8504 64.4409 29.577 50.9104 29.8231 46.3725C30.1739 39.941 33.9802 34.7719 39.926 33.9631C43.2445 33.5601 46.5816 33.3287 49.924 33.2699C52.3161 33.2699 57.0637 33.5737 59.5755 33.9589C62.3372 34.3769 64.8622 35.7576 66.7045 37.8571C68.6643 40.1079 69.5137 43.1311 69.6998 46.3832C69.9715 50.9276 71.8672 64.4602 71.8672 64.4602C71.9358 64.8992 72.1624 65.298 72.5044 65.5816C72.8464 65.8653 73.2802 66.0143 73.7243 66.0006V66.0006Z" fill="#FFFFFF"/><path d="M62.2499 44.8106C62.0175 44.8266 61.7906 44.8884 61.5822 44.9925C61.3738 45.0966 61.1881 45.241 61.0357 45.4172C60.8834 45.5934 60.7674 45.798 60.6945 46.0193C60.6216 46.2405 60.5933 46.474 60.611 46.7063L61.852 64.3746C61.8828 64.8202 62.0815 65.2375 62.4078 65.5424C62.7342 65.8474 63.164 66.0172 63.6107 66.0178H63.7369C64.2037 65.9843 64.6382 65.7671 64.945 65.4137C65.2519 65.0604 65.406 64.5997 65.3737 64.1328L64.1327 46.4624C64.1178 46.2302 64.0572 46.0033 63.9544 45.7946C63.8516 45.5859 63.7087 45.3995 63.5339 45.2461C63.359 45.0926 63.1556 44.9752 62.9353 44.9005C62.7149 44.8258 62.4821 44.7952 62.2499 44.8106V44.8106Z" fill="#FFFFFF"/><path d="M61.0475 81.983L69.5372 73.7073C69.7729 73.4774 69.9396 73.1861 70.0185 72.8665C70.0974 72.5468 70.0853 72.2115 69.9836 71.8983C69.8819 71.5852 69.6946 71.3067 69.4429 71.0944C69.1912 70.8821 68.8852 70.7444 68.5594 70.6969L56.8283 68.9853L51.5821 58.3625C51.4365 58.0669 51.211 57.818 50.9311 57.644C50.6513 57.4699 50.3284 57.3777 49.9989 57.3777C49.6694 57.3777 49.3464 57.4699 49.0666 57.644C48.7868 57.818 48.5613 58.0669 48.4156 58.3625L43.1695 68.9917L31.4384 70.7033C31.1125 70.7508 30.8065 70.8885 30.5548 71.1008C30.3032 71.3131 30.1159 71.5916 30.0142 71.9047C29.9125 72.2179 29.9004 72.5532 29.9793 72.8729C30.0581 73.1926 30.2249 73.4838 30.4606 73.7137L38.9503 81.9894L36.9477 93.6649C36.891 93.9904 36.9268 94.3253 37.0511 94.6315C37.1753 94.9377 37.383 95.2028 37.6506 95.3968C37.9181 95.5907 38.2347 95.7057 38.5643 95.7286C38.8939 95.7515 39.2234 95.6814 39.5151 95.5263L49.9989 90.0106L60.4826 95.5263C60.7362 95.659 61.018 95.7288 61.3042 95.7296C61.5612 95.7292 61.8151 95.6727 62.0481 95.5642C62.281 95.4556 62.4875 95.2975 62.6531 95.101C62.8188 94.9044 62.9395 94.6741 63.0069 94.426C63.0744 94.178 63.0869 93.9183 63.0437 93.6649L61.0475 81.983ZM49.1773 86.4546C47.1276 87.4987 41.0299 90.7337 41.0299 90.7337L42.5854 81.6599C42.6337 81.378 42.6129 81.0885 42.5245 80.8164C42.4362 80.5444 42.2831 80.2978 42.0783 80.0981L35.4864 73.6794L44.5965 72.3551C44.8796 72.3137 45.1483 72.2044 45.3797 72.0363C45.6112 71.8682 45.7983 71.6465 45.9252 71.3901L49.9903 63.1336L54.0554 71.3901C54.1823 71.6465 54.3695 71.8682 54.6009 72.0363C54.8323 72.2044 55.1011 72.3137 55.3841 72.3551L64.4943 73.6794L57.9023 80.0981C57.6976 80.2978 57.5445 80.5444 57.4561 80.8164C57.3678 81.0885 57.3469 81.378 57.3953 81.6599L58.9507 90.7337C58.9507 90.7337 52.853 87.4945 50.8033 86.4546C50.5536 86.3198 50.2742 86.2492 49.9903 86.2492C49.7065 86.2492 49.4271 86.3198 49.1773 86.4546Z" fill="#FFFFFF"/><path d="M98.4874 76.0629L89.9099 74.8156L86.0737 67.0448C85.9284 66.7491 85.7031 66.5001 85.4235 66.3259C85.1438 66.1518 84.821 66.0594 84.4915 66.0594C84.1621 66.0594 83.8392 66.1518 83.5596 66.3259C83.2799 66.5001 83.0547 66.7491 82.9094 67.0448L79.0732 74.8156L70.4957 76.0629C70.1699 76.1104 69.8639 76.2481 69.6122 76.4604C69.3605 76.6727 69.1733 76.9512 69.0716 77.2643C68.9699 77.5775 68.9578 77.9128 69.0366 78.2325C69.1155 78.5521 69.2822 78.8434 69.518 79.0733L75.7226 85.1239L74.257 93.6649C74.2004 93.9905 74.2362 94.3254 74.3605 94.6315C74.4847 94.9377 74.6924 95.2028 74.9599 95.3968C75.2274 95.5907 75.544 95.7057 75.8737 95.7286C76.2033 95.7515 76.5327 95.6814 76.8245 95.5263L84.4948 91.4933L92.1671 95.5263C92.4207 95.6591 92.7025 95.7288 92.9887 95.7296C93.2458 95.7292 93.4996 95.6728 93.7326 95.5642C93.9656 95.4556 94.1721 95.2976 94.3377 95.101C94.5033 94.9044 94.624 94.6741 94.6915 94.4261C94.7589 94.178 94.7714 93.9183 94.7282 93.6649L93.2626 85.1239L99.4673 79.0733C99.703 78.8434 99.8697 78.5521 99.9486 78.2325C100.027 77.9128 100.015 77.5775 99.9137 77.2643C99.8119 76.9512 99.6247 76.6727 99.373 76.4604C99.1213 76.2481 98.8153 76.1104 98.4895 76.0629H98.4874ZM83.671 87.9374C82.3253 88.6135 78.3414 90.738 78.3414 90.738L79.3599 84.8051C79.4082 84.5231 79.3873 84.2337 79.299 83.9616C79.2107 83.6895 79.0575 83.443 78.8528 83.2432L74.5416 79.0412L80.4981 78.1853C80.7815 78.1443 81.0506 78.0348 81.2822 77.8663C81.5137 77.6978 81.7006 77.4754 81.8267 77.2183L84.4905 71.8224L87.1542 77.2183C87.2811 77.4752 87.4686 77.6974 87.7004 77.8659C87.9322 78.0343 88.2014 78.144 88.485 78.1853L94.4393 79.0412L90.1303 83.2432C89.9252 83.4428 89.7719 83.6893 89.6836 83.9614C89.5952 84.2336 89.5745 84.5231 89.6232 84.8051L90.6502 90.738C90.6502 90.738 86.6685 88.6135 85.3228 87.9374C85.0689 87.8007 84.7852 87.7291 84.4969 87.7291C84.2086 87.7291 83.9248 87.8007 83.671 87.9374V87.9374Z" fill="#FFFFFF"/><path d="M29.5021 76.0629L20.9247 74.8156L17.0885 67.0448C16.9432 66.7491 16.7179 66.5001 16.4383 66.3259C16.1586 66.1518 15.8358 66.0594 15.5063 66.0594C15.1769 66.0594 14.854 66.1518 14.5744 66.3259C14.2947 66.5001 14.0694 66.7491 13.9241 67.0448L10.0879 74.8156L1.5105 76.0629C1.18469 76.1104 0.878659 76.2481 0.62699 76.4604C0.37532 76.6727 0.188047 76.9512 0.0863345 77.2643C-0.0153783 77.5775 -0.027476 77.9128 0.0514085 78.2325C0.130293 78.5521 0.297015 78.8434 0.532733 79.0733L6.7374 85.1239L5.28252 93.6649C5.22583 93.9905 5.26166 94.3254 5.38592 94.6315C5.51018 94.9377 5.71789 95.2028 5.9854 95.3968C6.25292 95.5907 6.5695 95.7057 6.89913 95.7286C7.22876 95.7515 7.5582 95.6814 7.84996 95.5263L15.5224 91.4933L23.1926 95.5263C23.4462 95.6591 23.728 95.7288 24.0142 95.7296C24.2712 95.7292 24.5251 95.6728 24.7581 95.5642C24.991 95.4556 25.1975 95.2976 25.3631 95.101C25.5287 94.9044 25.6495 94.6741 25.7169 94.4261C25.7844 94.178 25.7969 93.9183 25.7536 93.6649L24.2881 85.1239L30.4927 79.0733C30.7285 78.8434 30.8952 78.5521 30.9741 78.2325C31.0529 77.9128 31.0408 77.5775 30.9391 77.2643C30.8374 76.9512 30.6501 76.6727 30.3985 76.4604C30.1468 76.2481 29.8408 76.1104 29.515 76.0629H29.5021ZM14.6965 87.9374L9.35834 90.738L10.3746 84.8051C10.4234 84.5231 10.4027 84.2336 10.3143 83.9614C10.2259 83.6893 10.0726 83.4428 9.86755 83.2432L5.55852 79.0412L11.5129 78.1853C11.7964 78.144 12.0657 78.0343 12.2975 77.8659C12.5293 77.6974 12.7167 77.4752 12.8437 77.2183L15.5074 71.8224L18.1711 77.2183C18.2972 77.4754 18.4842 77.6978 18.7157 77.8663C18.9472 78.0348 19.2164 78.1443 19.4998 78.1853L25.4563 79.0412L21.1451 83.2432C20.9403 83.443 20.7872 83.6895 20.6989 83.9616C20.6105 84.2337 20.5896 84.5231 20.638 84.8051L21.6564 90.738L16.3268 87.9374C16.0814 87.7872 15.7993 87.7078 15.5117 87.7078C15.224 87.7078 14.9419 87.7872 14.6965 87.9374V87.9374Z" fill="#FFFFFF"/></g><defs><clipPath id="clip0_100_10"><rect width="100" height="100" fill="white"/></clipPath></defs></svg>