<?xml version="1.0" encoding="UTF-8"?>
<svg xmlns="http://www.w3.org/2000/svg" width="100" height="100" viewBox="0 0 100 100" fill="none"><g clip-path="url(#clip0_100_53)"><path d="M85.125 40.8125L67.9375 31.4375C67.757 31.3349 67.558 31.2689 67.3519 31.2432C67.1458 31.2175 66.9367 31.2327 66.7364 31.2878C66.5362 31.343 66.3488 31.437 66.1849 31.5646C66.021 31.6921 65.8839 31.8507 65.7813 32.0313C65.6787 32.2118 65.6127 32.4109 65.587 32.6169C65.5613 32.823 65.5764 33.0321 65.6316 33.2324C65.6867 33.4326 65.7807 33.62 65.9083 33.7839C66.0359 33.9478 66.1945 34.0849 66.375 34.1875L81.1094 42.1875L50 59.1563L42.9375 55.2969C42.757 55.1943 42.558 55.1283 42.3519 55.1026C42.1458 55.0769 41.9367 55.0921 41.7364 55.1472C41.5362 55.2023 41.3488 55.2964 41.1849 55.4239C41.021 55.5515 40.8839 55.7101 40.7813 55.8907C40.6787 56.0712 40.6127 56.2702 40.587 56.4763C40.5613 56.6824 40.5764 56.8915 40.6316 57.0917C40.6867 57.292 40.7807 57.4794 40.9083 57.6433C41.0359 57.8072 41.1945 57.9443 41.375 58.0469L48.4375 61.8594V95.8125L17.1875 78.7657V44.8125L22.6875 47.8125C22.9148 47.9463 23.1738 48.0165 23.4375 48.0157C23.786 48.0174 24.1251 47.9026 24.4008 47.6896C24.6765 47.4765 24.8731 47.1774 24.9593 46.8397C25.0456 46.5021 25.0164 46.1453 24.8766 45.8261C24.7367 45.5069 24.4942 45.2437 24.1875 45.0782L18.8907 42.1875L33.5625 34.1875C33.7431 34.0849 33.9017 33.9478 34.0292 33.7839C34.1568 33.62 34.2508 33.4326 34.306 33.2324C34.3611 33.0321 34.3763 32.823 34.3506 32.6169C34.3249 32.4109 34.2589 32.2118 34.1563 32.0313C34.0537 31.8507 33.9165 31.6921 33.7526 31.5646C33.5888 31.437 33.4013 31.343 33.2011 31.2878C33.0009 31.2327 32.7918 31.2175 32.5857 31.2432C32.3796 31.2689 32.1806 31.3349 32 31.4375L14.8125 40.8125C14.5776 40.9554 14.3845 41.1578 14.2528 41.3993C14.1211 41.6407 14.0555 41.9126 14.0625 42.1875V79.6875C14.0618 79.9686 14.1368 80.2447 14.2798 80.4867C14.4228 80.7287 14.6284 80.9276 14.875 81.0625L49.25 99.8125H49.4688H49.6094C49.8661 99.8748 50.134 99.8748 50.3906 99.8125H50.5313H50.75L85.125 81.0625C85.3716 80.9276 85.5772 80.7287 85.7202 80.4867C85.8632 80.2447 85.9383 79.9686 85.9375 79.6875V42.1875C85.9383 41.9064 85.8632 41.6304 85.7202 41.3884C85.5772 41.1464 85.3716 40.9474 85.125 40.8125V40.8125ZM51.5625 95.8125V61.8594L82.8125 44.8125V78.7657L51.5625 95.8125Z" fill="#FFFFFF"/><path d="M38.2813 40.8281C38.0437 40.691 37.7743 40.6188 37.5 40.6188C37.2257 40.6188 36.9563 40.691 36.7188 40.8281L25.7813 47.0781C25.5428 47.2158 25.345 47.414 25.2078 47.6527C25.0706 47.8914 24.9989 48.1622 25 48.4375V62.5C24.9989 62.7753 25.0706 63.046 25.2078 63.2848C25.345 63.5235 25.5428 63.7217 25.7813 63.8594L36.7188 70.1094C36.9569 70.2443 37.2263 70.3144 37.5 70.3125C37.7737 70.3144 38.0431 70.2443 38.2813 70.1094C38.5197 69.9717 38.7175 69.7735 38.8547 69.5348C38.9919 69.296 39.0636 69.0253 39.0625 68.75V55.5937L49.2188 49.7969C49.4592 49.6606 49.6592 49.463 49.7984 49.2241C49.9376 48.9853 50.0109 48.7139 50.0109 48.4375C50.0109 48.1611 49.9376 47.8896 49.7984 47.6508C49.6592 47.412 49.4592 47.2144 49.2188 47.0781L38.2813 40.8281ZM36.7188 53.3281C36.4803 53.4658 36.2825 53.664 36.1453 53.9027C36.0081 54.1414 35.9364 54.4122 35.9375 54.6875V66.0625L28.125 61.5937V49.3437L37.5 43.9844L45.3125 48.4375L36.7188 53.3281Z" fill="#FFFFFF"/><path d="M75.7813 65.8281L64.8438 72.0781C64.4832 72.2853 64.2198 72.6273 64.1114 73.0287C64.0029 73.4302 64.0584 73.8582 64.2656 74.2188C64.4728 74.5793 64.8148 74.8427 65.2162 74.9512C65.6177 75.0596 66.0457 75.0041 66.4063 74.7969L77.3438 68.5469C77.5223 68.4443 77.6788 68.3075 77.8045 68.1444C77.9302 67.9813 78.0225 67.7951 78.0762 67.5963C78.1298 67.3975 78.1439 67.1901 78.1174 66.9859C78.0909 66.7818 78.0245 66.5848 77.9219 66.4063C77.8193 66.2277 77.6825 66.0712 77.5194 65.9455C77.3563 65.8199 77.1701 65.7275 76.9713 65.6739C76.7725 65.6202 76.5651 65.6062 76.3609 65.6326C76.1568 65.6591 75.9598 65.7255 75.7813 65.8281V65.8281Z" fill="#FFFFFF"/><path d="M75.7813 73.6406L64.8438 79.8906C64.4832 80.0978 64.2198 80.4398 64.1114 80.8412C64.0029 81.2427 64.0584 81.6707 64.2656 82.0313C64.4728 82.3918 64.8148 82.6552 65.2162 82.7637C65.6177 82.8721 66.0457 82.8166 66.4063 82.6094L77.3438 76.3594C77.5223 76.2568 77.6788 76.12 77.8045 75.9569C77.9302 75.7938 78.0225 75.6076 78.0762 75.4088C78.1298 75.21 78.1439 75.0026 78.1174 74.7984C78.0909 74.5943 78.0245 74.3973 77.9219 74.2188C77.8193 74.0402 77.6825 73.8837 77.5194 73.758C77.3563 73.6324 77.1701 73.54 76.9713 73.4864C76.7725 73.4327 76.5651 73.4187 76.3609 73.4451C76.1568 73.4716 75.9598 73.538 75.7813 73.6406V73.6406Z" fill="#FFFFFF"/><path d="M42.8437 30.8906C44.7247 30.9038 46.6012 30.7046 48.4375 30.2969V42.1875H51.5625V30.1875C54.0049 31.2291 56.6264 31.7863 59.2812 31.8281C61.7612 31.8586 64.2044 31.2276 66.3594 30C73.8125 25.6875 74.0625 16.0625 74.0625 15.6563C74.0676 15.3741 73.9963 15.0958 73.8559 14.851C73.7156 14.6061 73.5116 14.4039 73.2656 14.2656C72.9062 14.0625 64.4375 9.45313 56.9844 13.75C53.9285 15.6006 51.6344 18.4821 50.5156 21.875C50.3585 16.1213 48.0112 10.6444 43.9531 6.5625C34.5781 -2.8125 21.9844 0.48438 21.4531 0.64063C21.1887 0.70996 20.9471 0.847456 20.7524 1.03938C20.5577 1.23131 20.4168 1.47095 20.3437 1.73438C20.2031 2.26563 16.9062 14.8594 26.2812 24.2344C28.4559 26.3959 31.0424 28.0988 33.8875 29.2422C36.7325 30.3856 39.7781 30.9461 42.8437 30.8906V30.8906ZM58.4687 16.4688C63.1562 13.7656 68.6719 15.6563 70.7812 16.5781C70.5156 18.8594 69.4062 24.5781 64.7187 27.2813C63.1181 28.0901 61.368 28.5603 59.5775 28.6625C57.787 28.7646 55.9947 28.4966 54.3125 27.875L65.0937 21.625C65.2723 21.5224 65.4288 21.3857 65.5545 21.2226C65.6802 21.0595 65.7725 20.8732 65.8261 20.6744C65.8798 20.4757 65.8938 20.2682 65.8674 20.0641C65.8409 19.8599 65.7745 19.6629 65.6719 19.4844C65.5693 19.3059 65.4325 19.1493 65.2694 19.0236C65.1063 18.898 64.9201 18.8057 64.7213 18.752C64.5225 18.6983 64.3151 18.6843 64.1109 18.7108C63.9067 18.7372 63.7098 18.8037 63.5312 18.9063L52.75 25.1563C53.0667 23.3873 53.745 21.7028 54.7424 20.2079C55.7399 18.7131 57.035 17.4402 58.5469 16.4688H58.4687ZM23.1719 3.50001C26.0312 3.00001 35.0156 2.07813 41.75 8.8125C43.8321 11.008 45.4089 13.6323 46.3697 16.5015C47.3306 19.3706 47.6524 22.4152 47.3125 25.4219L31.7969 9.92188C31.498 9.6659 31.1135 9.53214 30.7202 9.54733C30.327 9.56252 29.954 9.72554 29.6757 10.0038C29.3974 10.2821 29.2344 10.6551 29.2192 11.0484C29.204 11.4416 29.3378 11.8261 29.5937 12.125L45.0937 27.6406C42.0869 27.9838 39.0415 27.6635 36.1718 26.7025C33.3021 25.7414 30.6781 24.1629 28.4844 22.0781C21.75 15.3438 22.6719 6.35938 23.1719 3.50001V3.50001Z" fill="#FFFFFF"/></g><defs><clipPath id="clip0_100_53"><rect width="100" height="100" fill="white"/></clipPath></defs></svg>