<?xml version="1.0" encoding="UTF-8"?>
<svg xmlns="http://www.w3.org/2000/svg" width="100" height="100" viewBox="0 0 100 100" fill="none"><path d="M53.125 35.9375C60.8781 35.9375 67.1875 29.6297 67.1875 21.875C67.1875 14.1203 60.8781 7.8125 53.125 7.8125C45.3719 7.8125 39.0625 14.1203 39.0625 21.875C39.0625 29.6297 45.3719 35.9375 53.125 35.9375ZM53.125 10.9375C59.1562 10.9375 64.0625 15.8453 64.0625 21.875C64.0625 27.9047 59.1562 32.8125 53.125 32.8125C47.0938 32.8125 42.1875 27.9047 42.1875 21.875C42.1875 15.8453 47.0938 10.9375 53.125 10.9375Z" fill="#FFFFFF"/><path d="M89.0625 62.5H84.0875C84.2625 62.0094 84.375 61.4875 84.375 60.9375V48.4375C84.375 45.8531 82.2719 43.75 79.6875 43.75H64.0625C61.4781 43.75 59.375 45.8531 59.375 48.4375V60.9375C59.375 61.4875 59.4875 62.0094 59.6625 62.5H52.8359C53.0125 62.0094 53.125 61.4875 53.125 60.9375V48.4375C53.125 45.8531 51.0219 43.75 48.4375 43.75H32.8125C30.2281 43.75 28.125 45.8531 28.125 48.4375V60.9375C28.125 61.4875 28.2375 62.0094 28.4125 62.5H22.4391C22.0797 61.0328 21.8844 59.5016 21.875 57.9313C21.8141 47.375 29.8625 38.5719 40.2969 37.6063C43.7969 40.4672 48.2625 42.1875 53.125 42.1875C64.325 42.1875 73.4375 33.075 73.4375 21.875C73.4375 10.675 64.325 1.5625 53.125 1.5625C41.925 1.5625 32.8125 10.675 32.8125 21.875C32.8125 22.3 32.85 22.7141 32.8766 23.1328C29.7063 23.9813 26.6719 25.2313 23.8469 26.9125L18.75 23.7969L8.17188 34.375L11.2875 39.4719C9.52812 42.4281 8.2125 45.6031 7.36719 48.9328L1.5625 50.3328V65.2922L7.36719 66.6922C8.21406 70.0219 9.52812 73.1969 11.2875 76.1531L8.17188 81.25L18.75 91.8281L23.8453 88.7141C26.8031 90.4734 29.9781 91.7891 33.3062 92.6359L34.7062 98.4375H49.6672L51.0672 92.6344C54.3953 91.7875 57.5703 90.4719 60.5281 88.7125L65.6203 91.825L76.2531 81.25H89.0625C94.2328 81.25 98.4375 77.0453 98.4375 71.875C98.4375 66.7047 94.2328 62.5 89.0625 62.5V62.5ZM84.375 76.5625C81.7906 76.5625 79.6875 74.4594 79.6875 71.875C79.6875 69.2906 81.7906 67.1875 84.375 67.1875C86.9594 67.1875 89.0625 69.2906 89.0625 71.875C89.0625 74.4594 86.9594 76.5625 84.375 76.5625ZM76.5625 71.875C76.5625 74.4391 77.8219 76.7 79.7359 78.125H70.2641C72.1781 76.7 73.4375 74.4391 73.4375 71.875C73.4375 69.3109 72.1781 67.05 70.2641 65.625H79.6875H79.7359C77.8219 67.05 76.5625 69.3109 76.5625 71.875ZM51.5141 78.125C53.4281 76.7 54.6875 74.4391 54.6875 71.875C54.6875 69.3109 53.4281 67.05 51.5141 65.625H60.9859C59.0719 67.05 57.8125 69.3109 57.8125 71.875C57.8125 74.4391 59.0719 76.7 60.9859 78.125H51.5141ZM46.875 67.1875C49.4594 67.1875 51.5625 69.2906 51.5625 71.875C51.5625 74.4594 49.4594 76.5625 46.875 76.5625C44.2906 76.5625 42.1875 74.4594 42.1875 71.875C42.1875 69.2906 44.2906 67.1875 46.875 67.1875ZM65.625 76.5625C63.0406 76.5625 60.9375 74.4594 60.9375 71.875C60.9375 69.2906 63.0406 67.1875 65.625 67.1875C68.2094 67.1875 70.3125 69.2906 70.3125 71.875C70.3125 74.4594 68.2094 76.5625 65.625 76.5625ZM68.75 46.875H75V50H68.75V46.875ZM62.5 60.9375V48.4375C62.5 47.575 63.2016 46.875 64.0625 46.875H65.625V53.125H78.125V46.875H79.6875C80.5484 46.875 81.25 47.575 81.25 48.4375V60.9375C81.25 61.8 80.5484 62.5 79.6875 62.5H64.0625C63.2016 62.5 62.5 61.8 62.5 60.9375ZM37.5 46.875H43.75V50H37.5V46.875ZM31.25 60.9375V48.4375C31.25 47.575 31.9516 46.875 32.8125 46.875H34.375V53.125H46.875V46.875H48.4375C49.2984 46.875 50 47.575 50 48.4375V60.9375C50 61.8 49.2984 62.5 48.4375 62.5H32.8125C31.9516 62.5 31.25 61.8 31.25 60.9375ZM32.8125 65.625H42.2359C40.3219 67.05 39.0625 69.3109 39.0625 71.875C39.0625 74.4266 40.3094 76.675 42.2078 78.1016C33.7938 77.8578 26.5859 72.7766 23.4922 65.625H32.8125ZM18.75 57.95C18.8234 70.7984 29.6281 81.25 42.8359 81.25H54.6484C50.8328 83.275 46.5484 84.375 42.1875 84.375C27.5406 84.375 15.625 72.4594 15.625 57.8125C15.625 45.6969 23.9656 35.0734 35.6016 32.0984C36.1719 33.0719 36.8078 34.0031 37.5266 34.8656C26.7172 37.0484 18.6859 46.6219 18.75 57.95ZM53.125 4.6875C62.6016 4.6875 70.3125 12.3984 70.3125 21.875C70.3125 31.3516 62.6016 39.0625 53.125 39.0625C43.6484 39.0625 35.9375 31.3516 35.9375 21.875C35.9375 12.3984 43.6484 4.6875 53.125 4.6875ZM65.1578 87.8797L60.5141 85.0406L59.6937 85.5594C56.5281 87.5609 53.075 88.9922 49.4312 89.8141L48.4844 90.0281L47.2062 95.3125H37.1672L35.8922 90.0266L34.9453 89.8125C31.3016 88.9922 27.8484 87.5609 24.6828 85.5578L23.8625 85.0391L19.2219 87.8766L12.1234 80.7781L14.9609 76.1359L14.4406 75.3156C12.4406 72.1531 11.0094 68.7 10.1875 65.0531L9.97344 64.1062L4.6875 62.8328V52.7922L9.97344 51.5188L10.1875 50.5719C11.0094 46.925 12.4391 43.4719 14.4406 40.3094L14.9609 39.4891L12.1234 34.8469L19.2219 27.7484L23.8625 30.5859L24.6828 30.0672C27.3641 28.3719 30.2625 27.1125 33.3016 26.2578C33.5281 27.2813 33.8375 28.2734 34.2125 29.2328C21.5297 32.7703 12.5 44.4859 12.5 57.8125C12.5 74.1828 25.8172 87.5 42.1875 87.5C48.7672 87.5 55.1969 85.275 60.3781 81.25H71.8219L65.1578 87.8797ZM89.0625 78.125H89.0141C90.9281 76.7 92.1875 74.4391 92.1875 71.875C92.1875 69.3109 90.9281 67.05 89.0141 65.625H89.0625C92.5094 65.625 95.3125 68.4281 95.3125 71.875C95.3125 75.3219 92.5094 78.125 89.0625 78.125Z" fill="#FFFFFF"/><path d="M62.0422 18.2921L59.8328 16.0828L51.5625 24.3531L47.9797 20.7703L45.7703 22.9796L51.5625 28.7718L62.0422 18.2921Z" fill="#FFFFFF"/></svg>