<?xml version="1.0" encoding="UTF-8"?>
<svg xmlns="http://www.w3.org/2000/svg" width="100" height="100" viewBox="0 0 100 100" fill="none"><g clip-path="url(#clip0_314_1209)"><path d="M50 12.5245C28.4726 12.5245 10.9589 30.0382 10.9589 51.5656C10.9589 53.1959 11.0605 54.8372 11.2609 56.4439L14.1738 56.0808C14.0483 55.0756 13.9685 54.0552 13.9276 53.0335H26.6325C26.6804 55.2106 26.8356 57.3716 27.0947 59.4914H12.5245V78.2781H0V100H53.0333V90.4881C62.583 89.7548 71.4521 85.5789 78.1366 78.6313C85.1685 71.3227 89.0411 61.7106 89.0411 51.5656C89.0411 30.0382 71.5274 12.5245 50 12.5245ZM79.8746 31.3112H70.0307C69.1164 28.7838 68.0254 26.4165 66.7661 24.2575C65.1213 21.438 63.2624 19.0912 61.2466 17.2556C68.8982 19.7699 75.4296 24.7757 79.8746 31.3112ZM73.3677 50.0979C73.246 44.5153 72.4321 39.1345 70.9932 34.2466H81.6726C84.2755 38.9879 85.8433 44.3734 86.0734 50.0979H73.3677ZM37.3777 81.2133H40.7045V87.6713H37.3777V81.2133ZM40.5088 78.2779V71.82H48.5323V78.2779H40.5088ZM53.0333 87.2662V78.2779H51.4677V71.82H66.8947C66.2509 73.4779 65.5243 75.0532 64.7188 76.5292C61.5491 82.336 57.4485 86.0836 53.0333 87.2662V87.2662ZM51.4677 68.8846V53.0333H70.4321C70.3033 58.637 69.4397 64.0409 67.9217 68.8846H51.4677ZM51.4677 50.0979V34.2466H67.9272C69.4434 39.0795 70.3041 44.4726 70.4319 50.0979H51.4677ZM32.0728 34.2466H48.5323V50.0979H29.5681C29.6959 44.4726 30.5566 39.0795 32.0728 34.2466V34.2466ZM26.6321 50.0979H13.9266C14.1568 44.3734 15.7245 38.9879 18.3274 34.2466H29.0069C27.5679 39.1345 26.754 44.5153 26.6321 50.0979V50.0979ZM51.4677 15.5536C56.2364 16.1617 60.7225 19.7233 64.2305 25.7368C65.2354 27.4595 66.1272 29.3266 66.8994 31.3112H51.4677V15.5536ZM48.5323 15.5536V31.3112H33.1006C33.8728 29.3264 34.7646 27.4595 35.7695 25.7368C39.2775 19.7233 43.7636 16.1617 48.5323 15.5536V15.5536ZM38.7536 17.2556C36.7378 19.0912 34.8789 21.4382 33.2341 24.2575C31.9748 26.4165 30.8838 28.7838 29.9693 31.3112H20.1254C24.5705 24.7757 31.1018 19.7699 38.7536 17.2556V17.2556ZM29.5689 53.0333H48.5323V68.8846H40.5088V59.4912H30.0513C29.7798 57.3758 29.619 55.2131 29.5689 53.0333ZM24.8532 62.4266H28.18V68.8846H24.8532V62.4266ZM15.4599 62.4266H21.9178V71.82H31.1155V62.4266H37.5734V78.2779H15.4599V62.4266ZM12.3288 81.2133H15.6556V87.6713H12.3288V81.2133ZM2.93542 81.2133H9.39335V90.6067H18.591V81.2133H25.0489V97.0646H2.93542V81.2133ZM50.0979 97.0646H27.9843V81.2133H34.4423V90.6067H43.6399V81.2133H50.0979V97.0646ZM76.0213 76.5957C71.8583 80.9225 66.7789 84.0857 61.2092 85.899C63.4691 83.8529 65.5266 81.1756 67.2953 77.9356C68.3311 76.038 69.2429 73.9881 70.026 71.82H76.6145V68.8846H70.9863C72.4272 63.9861 73.2452 58.5961 73.3679 53.0333H86.0742C85.7207 61.8716 82.1842 70.1906 76.0213 76.5957V76.5957Z" fill="#FFFFFF"/><path d="M17.123 72.0156H20.2542V74.951H17.123V72.0156Z" fill="#FFFFFF"/><path d="M4.59863 90.8024H7.72975V93.7378H4.59863V90.8024Z" fill="#FFFFFF"/><path d="M29.6479 90.8024H32.7791V93.7378H29.6479V90.8024Z" fill="#FFFFFF"/><path d="M89.1389 0C83.15 0 78.2778 4.87221 78.2778 10.8611C78.2778 20.9243 87.9146 27.4644 88.3248 27.7378L89.1389 28.2804L89.953 27.7378C90.3632 27.4644 99.9999 20.9243 99.9999 10.8611C99.9999 4.87221 95.1277 0 89.1389 0V0ZM92.772 21.1967C91.3894 22.8204 89.9894 24.0213 89.1389 24.69C88.2882 24.0209 86.8884 22.8202 85.5058 21.1967C82.6575 17.8519 81.2133 14.3744 81.2133 10.8611C81.2133 6.4908 84.7686 2.93542 89.1389 2.93542C93.5091 2.93542 97.0645 6.4908 97.0645 10.8611C97.0645 14.3744 95.6203 17.8519 92.772 21.1967Z" fill="#FFFFFF"/><path d="M89.1389 6.26221C86.6031 6.26221 84.54 8.32522 84.54 10.861C84.54 13.3968 86.6031 15.4599 89.1389 15.4599C91.6747 15.4599 93.7377 13.3968 93.7377 10.861C93.7377 8.32522 91.6747 6.26221 89.1389 6.26221ZM89.1389 12.5244C88.2216 12.5244 87.4755 11.7783 87.4755 10.861C87.4755 9.94381 88.2216 9.19763 89.1389 9.19763C90.0561 9.19763 90.8023 9.94381 90.8023 10.861C90.8023 11.7783 90.0561 12.5244 89.1389 12.5244Z" fill="#FFFFFF"/></g><defs><clipPath id="clip0_314_1209"><rect width="100" height="100" fill="white"/></clipPath></defs></svg>