<?xml version="1.0" encoding="UTF-8"?>
<svg xmlns="http://www.w3.org/2000/svg" width="100" height="100" viewBox="0 0 100 100" fill="none"><g clip-path="url(#clip0_276_1135)"><path d="M43.1035 30.2222C44.3466 30.386 45.4759 30.6791 46.5397 30.9446C48.5397 31.4446 50.2294 31.8894 52.2294 29.8894C52.7225 29.3963 53.4638 29.248 54.1087 29.5153C54.7518 29.7825 55.1725 30.4118 55.1725 31.1084C55.1725 32.6291 55.288 33.486 55.6759 34.0135C56.0259 34.4894 56.5638 34.6153 57.138 34.8756C58.5121 35.4963 60.1431 36.3187 61.7793 38.7721C61.969 39.0566 62.069 39.3894 62.069 39.729V43.2859L58.6207 43.717C58.6207 42.0446 58.6207 40.2756 58.6207 40.2739C57.2449 38.4377 55.8621 38.1221 54.8328 37.6066C54.0656 37.2239 53.4173 36.7653 52.8966 36.0549C52.5638 35.6015 52.2725 35.0239 52.0621 34.2342C50.4656 34.9808 48.9363 34.9497 47.3173 34.6532C46.038 34.4187 44.6828 33.9291 43.1035 33.6842V30.2222Z" fill="#FFFFFF"/><path d="M62.0689 42.4807V44.9014H63.793C64.4465 44.9014 65.043 45.2704 65.3344 45.8548C65.3344 45.8548 66.6275 48.4376 66.6258 48.4376C69.3551 48.8945 70.2516 51.0307 70.5447 52.3841L71.8999 53.0617C72.4826 52.341 73.3085 51.4117 74.2706 50.5859C75.3654 49.6479 76.6344 48.8738 77.9344 48.5341L79.0292 51.8152C78.1309 51.9272 77.2757 52.5514 76.5154 53.2031C74.9602 54.5359 73.8482 56.2031 73.8482 56.2031C73.3654 56.9255 72.4206 57.1772 71.643 56.7876L68.1947 55.0634C67.6102 54.7721 67.2413 54.1755 67.2413 53.5221C67.2413 53.5221 67.2413 51.7979 65.5171 51.7979C64.8637 51.7979 64.2671 51.429 63.9758 50.8445L62.7275 48.3497H60.3447C59.393 48.3497 58.6206 47.5773 58.6206 46.6255C58.6206 46.6255 58.6206 44.6204 58.6206 42.8635L62.0689 42.4807Z" fill="#FFFFFF"/><path d="M76.9517 48.8722C77.5758 48.6066 78.2137 48.429 78.8517 48.3704C79.5637 47.9946 81.3827 46.9946 83.1292 45.7066C84.2551 44.8756 85.3775 43.9394 86.0551 42.9635C86.1809 42.7446 86.3137 42.5204 86.4534 42.2911C86.9292 41.4963 87.9482 41.2204 88.7602 41.6653C89.5723 42.1118 89.8878 43.1204 89.4723 43.948C89.3447 44.2049 89.193 44.4618 89.0206 44.7187C87.5171 47.2635 86.9016 48.6049 86.924 49.5084C86.9292 49.7135 87.0585 49.8221 87.1792 49.948C87.3447 50.1187 87.5292 50.2859 87.7223 50.4687C87.9534 50.6877 88.1896 50.9239 88.424 51.1911C88.6361 51.1118 88.8499 51.0497 89.0637 50.9963C89.5878 50.8652 90.1327 50.9118 90.6551 50.5394C90.9671 50.3153 91.2482 49.929 91.562 49.3032C91.8533 48.7187 92.4499 48.3497 93.1033 48.3497C93.7568 48.3497 94.3533 48.7187 94.6447 49.3032C95.2999 50.6135 95.7189 51.9204 96.1585 53.0532L93.543 55.6687L93.5016 55.5859C93.1809 54.9463 92.9137 54.1997 92.6206 53.4014C92.0533 53.7928 91.4878 53.979 90.9361 54.117C90.3533 54.2635 89.7327 54.1601 89.1499 54.7411C88.7585 55.1325 88.2016 55.3135 87.6551 55.2239C87.1085 55.1359 86.6361 54.7894 86.3896 54.2928C85.8637 53.2446 85.1172 52.7911 84.6223 52.2635C83.9585 51.5549 83.5189 50.7911 83.4792 49.648C81.6327 50.8411 80.081 51.6152 80.081 51.6152C79.8413 51.7359 79.5775 51.798 79.3103 51.798C78.9482 51.798 78.5913 51.8877 78.2448 52.0377L76.9517 48.8722Z" fill="#FFFFFF"/><path d="M95.8999 52.3669C96.0241 52.7049 96.1482 53.0325 96.2741 53.3445C96.6896 54.3704 97.0534 55.2462 98.2758 55.2462C99.1206 55.2462 99.843 55.86 99.9775 56.6945C100.114 57.529 99.6241 58.3393 98.8206 58.6066C96.3224 59.4393 95.8051 60.248 95.2068 61.0807C94.581 61.9497 93.8862 62.8169 92.15 63.6842C91.4862 64.0169 90.6844 63.8859 90.1603 63.3617C89.4896 62.6911 89.0207 62.3342 88.5431 62.3962C88.0569 62.46 87.7051 62.8755 87.3327 63.2686C86.7569 63.8755 86.2293 64.5583 85.7017 65.0859C85.2086 65.579 84.4672 65.7273 83.8224 65.46C83.1793 65.1928 82.7586 64.5635 82.7586 63.8669C82.7586 61.8893 82.8517 60.5842 82.4189 59.4945L85.3224 57.56C85.6689 58.2428 85.881 58.9824 86.0103 59.8428C86.831 59.2531 87.7413 58.9118 88.7534 58.9462C89.5724 58.9738 90.5103 59.2531 91.5465 60.0118C92.1689 59.5152 92.4344 59.0118 92.8017 58.5221C93.1879 58.0066 93.6293 57.479 94.3534 56.9514C94.0327 56.5514 93.7551 56.0928 93.5017 55.5859C93.3741 55.3307 93.2534 55.0583 93.1379 54.7738L95.8999 52.3669Z" fill="#FFFFFF"/><path d="M67.5362 72.0445C66.7155 71.791 66.0362 71.4445 65.5034 71.0531C64.5017 70.3169 63.9482 69.3893 63.7793 68.4651C63.5258 67.0686 64.0827 65.46 65.9724 64.3238C66.712 63.0962 67.65 62.4307 68.6241 62.1083C69.931 61.6755 71.4086 61.9445 72.7361 62.5565C73.1534 60.9152 74.0896 59.3376 76.162 58.8497C76.8982 56.9583 79.0068 55.2462 82.7585 55.2462C83.2154 55.2462 83.6551 55.4272 83.9775 55.7514C84.8741 56.6462 85.412 57.5324 85.7344 58.591L82.7172 60.8479C82.6413 60.029 82.4516 59.3583 81.9999 58.729C81.1103 58.8152 80.4103 59.0548 79.9137 59.4272C79.543 59.7048 79.3103 60.0479 79.3103 60.4186C79.3103 61.3703 78.5379 62.1427 77.5861 62.1427C77.1775 62.1427 76.8586 62.2065 76.6223 62.3686C76.2672 62.61 76.1327 63.0255 76.0344 63.4324C75.8482 64.1979 75.862 65.0117 75.862 65.591C75.862 66.2876 75.4413 66.9169 74.7982 67.1841C74.1534 67.4514 73.412 67.3031 72.9189 66.81C72.3948 66.2858 71.6672 65.7531 70.8913 65.4789C70.4948 65.341 70.0862 65.2565 69.7068 65.3807C69.3362 65.5048 69.0448 65.8393 68.7827 66.3617C68.6172 66.6962 68.3465 66.9669 68.012 67.1324C67.5706 67.3531 67.2362 67.5427 67.1724 67.8358C67.1293 68.0358 67.3655 68.1496 67.5879 68.3048C68.0655 68.6393 68.7413 68.8703 69.5827 68.9738L67.5362 72.0445Z" fill="#FFFFFF"/><path d="M68.6465 68.7876C69.2155 68.9514 69.9017 69.0393 70.6896 69.0393C71.6413 69.0393 72.4138 69.8117 72.4138 70.7635C72.4138 71.3428 72.4 72.1566 72.5862 72.9221C72.6844 73.329 72.8189 73.7445 73.1741 73.9859C73.4103 74.1479 73.7293 74.2117 74.1379 74.2117C74.862 74.2117 75.5086 74.6634 75.7568 75.3428C76.0051 76.0221 75.8034 76.7841 75.2517 77.2514C71.9793 80.0238 70.9948 82.4393 70.6741 84.7893C70.5844 85.4393 70.1362 85.9807 69.5155 86.191C68.8948 86.3996 68.2103 86.2393 67.7465 85.7755C66.6879 84.7169 65.281 83.6583 64.4345 83.0531L60.9845 84.4324C60.4534 84.6462 59.8517 84.5807 59.3776 84.26C58.9052 83.9393 58.6207 83.4048 58.6207 82.8324C58.6207 81.1721 58.6741 79.529 59.6983 77.8755C58.7707 77.191 57.969 76.9117 57.1948 76.7652L58.2965 73.4583C59.7638 73.7772 61.3224 74.4738 63.2879 76.441C63.9621 77.1134 63.9621 78.2065 63.2879 78.879C62.8672 79.3014 62.5896 79.7255 62.4103 80.1496L64.0155 79.5083C64.5414 79.2962 65.1396 79.3583 65.612 79.6738C65.612 79.6738 66.6948 80.3979 67.9551 81.391C68.5034 79.8669 69.4051 78.2893 70.9207 76.6307C69.6534 75.5721 69.1982 73.8703 69.0431 72.3772C68.1586 72.2531 67.3862 72.0307 66.7327 71.7479L68.6465 68.7876Z" fill="#FFFFFF"/><path d="M27.5051 52.0428C28.2448 51.8807 28.8827 51.6048 29.4827 51.4324C30.6086 51.1117 31.6534 51.0186 32.7379 51.4203C33.7051 51.779 34.7706 52.5703 35.9172 54.2893C36.1068 54.5738 36.2068 54.9065 36.2068 55.2462C36.2068 55.9358 36.6568 56.3358 37.0447 56.7083C37.5999 57.241 38.1516 57.7238 38.5068 58.2376C38.9275 58.8445 39.1482 59.4996 39.112 60.2427C39.0913 60.6841 38.9689 61.1945 38.6568 61.7738L49.2775 69.36C49.3551 69.4151 49.4275 69.4772 49.4947 69.5444C53.1551 73.2048 55.1706 73.0168 57.1826 73.2737C57.9843 73.3755 58.7895 73.5237 59.6516 73.872L58.0878 77.0013C57.2344 76.7013 56.4533 76.6634 55.6292 76.572C53.4499 76.3306 51.0068 75.8961 47.1585 72.0841L35.2051 63.5462C34.793 63.2513 34.531 62.7893 34.4879 62.2841C34.4465 61.7807 34.6292 61.2824 34.9879 60.9238C35.2672 60.6445 35.5051 60.3014 35.612 60.1376C35.531 60.0427 35.4068 59.8996 35.312 59.81C34.9741 59.4858 34.593 59.1548 34.2448 58.7789C33.5206 58.0014 32.931 57.0703 32.7913 55.8272C32.2706 55.091 31.8706 54.6996 31.3999 54.6152C30.7982 54.5065 30.2223 54.81 29.5448 55.0272C28.5948 55.3307 27.5465 55.6203 26.312 55.6203L27.5051 52.0428Z" fill="#FFFFFF"/><path d="M7.78271 45.767C8.14823 44.9876 8.52237 44.3825 8.90168 43.9325C9.57409 43.1359 10.3137 42.7187 11.0844 42.5635C11.7999 42.4204 12.5758 42.5014 13.4206 42.8721C13.5034 42.2997 13.6517 41.7842 13.8448 41.3394C14.4103 40.0497 15.3724 39.2532 16.4861 38.9894C17.7913 38.679 19.6223 39.1273 21.3758 41.2187C23.7447 40.7739 25.1982 41.6239 26.0189 42.729C26.7465 43.7101 27.0137 45.0583 26.8396 46.3721C26.7534 47.0307 26.5568 47.6721 26.2792 48.2394C26.8827 49.1394 27.1551 50.048 27.1551 50.9359C27.1551 51.3307 27.1016 51.7307 26.9878 52.1307C27.4275 52.0756 27.8327 51.9704 28.2137 51.8514L27.7637 55.4894C26.5827 55.698 25.2292 55.7031 23.593 55.1583C23.0258 54.9687 22.5965 54.4997 22.4603 53.9187C22.3223 53.3359 22.4965 52.7256 22.9189 52.3031C23.3896 51.8325 23.7068 51.4066 23.7068 50.9359C23.7068 50.4652 23.3896 50.0394 22.9189 49.5687C22.2447 48.8963 22.2447 47.8032 22.9189 47.1307C23.2516 46.7963 23.4258 46.2135 23.443 45.6583C23.4568 45.2808 23.443 44.867 23.1292 44.6721C22.7241 44.4187 22.1137 44.5204 21.2344 44.8135C20.4965 45.0583 19.6861 44.7807 19.2551 44.1342C18.7379 43.3583 18.243 42.8204 17.7568 42.5204C17.5758 42.4083 17.4258 42.3101 17.2792 42.3446C17.031 42.4032 16.9775 42.7221 16.8913 43.0549C16.6844 43.8532 16.762 44.9066 17.1534 46.0808C17.4051 46.8394 17.1034 47.6721 16.4241 48.0928C15.743 48.5118 14.8637 48.4101 14.2982 47.8445C13.5568 47.1049 12.9189 46.5376 12.3396 46.1911C12.112 46.0549 11.9431 45.9083 11.7603 45.9463C11.5913 45.979 11.5103 46.1721 11.3672 46.3825C11.0413 46.8601 10.7448 47.5169 10.4413 48.3601L7.78271 45.767Z" fill="#FFFFFF"/><path d="M10.8431 47.3497C10.6758 47.7221 10.512 48.1497 10.3448 48.6342V55.2462C10.3448 55.7773 10.1 56.279 9.68101 56.6049C9.26377 56.9324 8.71722 57.048 8.2017 56.9186L1.30517 55.1945C0.53793 55.0031 0 54.3135 0 53.5221V22.4877C0 21.8067 0.401723 21.1894 1.02414 20.9118L16.5413 14.0153C17.112 13.7619 17.7758 13.8377 18.2758 14.2119L32.0689 24.5567C32.5034 24.8825 32.7585 25.3929 32.7585 25.936C32.7585 26.0618 32.8551 26.1946 32.9396 26.3601C33.1344 26.7377 33.412 27.148 33.7327 27.5722C34.5861 28.698 35.7223 29.8928 36.6516 30.8359C39.9775 29.7497 42.5775 30.0377 44.8275 30.5325V34.0446C42.6982 33.5101 40.1999 33.0928 36.8465 34.4325C36.2068 34.6894 35.4758 34.5394 34.9878 34.0515C33.7172 32.7808 31.5654 30.6101 30.3827 28.8049C29.9465 28.1377 29.6413 27.4929 29.4706 26.9187L17.0172 17.5774L3.44827 23.6084V52.1756L6.89653 53.0376V48.3497C6.89653 48.1652 6.92584 47.9807 6.98446 47.8049C7.34826 46.7152 7.72412 45.8273 8.1086 45.1221L10.8431 47.3497Z" fill="#FFFFFF"/></g><defs><clipPath id="clip0_276_1135"><rect width="100" height="100" fill="white"/></clipPath></defs></svg>